<svg width="250" height="251" viewBox="0 0 250 251" fill="none" xmlns="http://www.w3.org/2000/svg">
<path d="M162.642 71.473L155.717 74.3532L162.642 71.473L141.158 19.8191C135.18 5.44643 114.82 5.44644 108.842 19.8191L87.3578 71.473C86.9978 72.3385 86.1838 72.93 85.2493 73.0049L29.4846 77.4755C13.9681 78.7195 7.67644 98.0834 19.4983 108.21L61.9852 144.605C62.6971 145.214 63.0081 146.171 62.7905 147.083L49.8101 201.5C46.1983 216.642 62.6702 228.609 75.9545 220.495L123.697 191.334C124.497 190.846 125.503 190.846 126.303 191.334L174.046 220.495C187.33 228.609 203.802 216.642 200.19 201.5L187.209 147.083C186.992 146.171 187.303 145.214 188.015 144.605L230.502 108.21C242.324 98.0833 236.032 78.7195 220.515 77.4755L164.751 73.0049C163.816 72.93 163.002 72.3385 162.642 71.473Z" stroke="#FFFEFE" stroke-opacity="0.5" stroke-width="15"/>
<path d="M134.233 84.6795C130.817 76.4666 119.183 76.4666 115.767 84.6795L108.331 102.557L89.0306 104.104C80.1641 104.815 76.5688 115.88 83.3242 121.667L98.0291 134.263L93.5365 153.097C91.4726 161.75 100.885 168.588 108.476 163.952L125 153.859L141.524 163.952C149.115 168.588 158.527 161.75 156.464 153.097L151.971 134.263L166.676 121.667C173.431 115.88 169.836 104.815 160.969 104.104L141.669 102.557L134.233 84.6795Z" stroke="#FFFEFE" stroke-opacity="0.5" stroke-width="10"/>
</svg>
